<svg class="icon" viewBox="0 0 1024 1024" xmlns="http://www.w3.org/2000/svg" width="200" height="200"><defs><style/></defs><path d="M759.34 396.166h-66.178c0-106.295-81.24-187.538-184.786-187.538-103.69 0-184.787 81.243-184.787 187.538h-66.322c0-127.585 112.522-253.718 250.966-253.718s251.115 126.135 251.115 253.718h-.007zm83.997 121.215c0-36.493-29.69-66.177-66.18-66.177H246.84c-36.497 0-66.18 29.684-66.18 66.177v301.795c0 36.495 29.687 66.179 66.18 66.179h530.17c36.494 0 66.178-29.688 66.178-66.179V517.381h.149zM564.42 735.641c0 27.368-22.161 49.669-49.67 49.669h-7.095c-27.372 0-49.67-22.16-49.67-49.67V600.964c0-27.371 22.158-49.672 49.67-49.672h7.096c27.369 0 49.669 22.16 49.669 49.672V735.64z"/></svg>